<?xml version="1.0" standalone="no"?>
<!DOCTYPE svg PUBLIC "-//W3C//DTD SVG 20010904//EN"
 "http://www.w3.org/TR/2001/REC-SVG-20010904/DTD/svg10.dtd">
<svg version="1.0" xmlns="http://www.w3.org/2000/svg"
 width="512.000000pt" height="512.000000pt" viewBox="0 0 512.000000 512.000000"
 preserveAspectRatio="xMidYMid meet">

<g transform="translate(0.000000,512.000000) scale(0.100000,-0.100000)"
fill="#000000" stroke="none">
<path d="M3569 4775 l-164 -94 2 -36 c2 -30 25 -93 115 -315 8 -21 4 -36 -29
-93 -23 -40 -46 -69 -58 -71 -11 -2 -63 -9 -115 -16 -122 -14 -228 -36 -246
-51 -11 -9 -14 -50 -14 -193 0 -99 4 -186 8 -192 12 -20 107 -43 251 -61 l137
-17 38 -70 37 -71 -54 -130 c-71 -172 -85 -222 -66 -240 8 -8 84 -54 169 -103
116 -67 159 -87 172 -81 16 9 147 165 211 252 l28 37 82 0 82 0 84 -109 c46
-60 102 -128 125 -150 l41 -41 168 96 c156 90 167 98 167 126 0 30 -50 171
-100 284 -30 65 -30 66 -11 92 10 15 28 46 39 68 21 41 22 42 89 48 109 11
255 37 291 52 l32 13 0 195 0 195 -52 16 c-29 8 -107 22 -173 31 -66 9 -129
17 -141 20 -13 2 -36 29 -61 71 -40 67 -41 69 -26 103 69 156 114 285 111 313
-3 30 -13 38 -167 126 l-165 95 -70 -76 c-39 -42 -96 -110 -126 -152 l-55 -75
-80 -1 -80 0 -73 95 c-93 118 -149 183 -171 195 -14 7 -55 -12 -182 -85z m645
-570 c64 -30 139 -107 169 -173 17 -37 21 -66 21 -132 -1 -106 -23 -160 -97
-234 -72 -73 -143 -99 -252 -94 -97 4 -151 27 -218 94 -73 73 -91 121 -92 234
0 111 19 161 90 234 101 104 250 132 379 71z"/>
<path d="M1432 4225 c-33 -24 -65 -164 -87 -387 l-7 -66 -47 -17 c-25 -10 -72
-29 -103 -42 l-57 -25 -118 94 c-227 181 -229 182 -310 122 -63 -47 -218 -199
-299 -293 -94 -108 -95 -104 54 -290 47 -58 96 -122 109 -142 l23 -35 -33 -75
c-18 -41 -38 -85 -44 -99 -9 -23 -20 -26 -219 -56 -194 -30 -210 -34 -231 -59
-23 -26 -23 -30 -23 -294 0 -245 2 -271 18 -291 16 -20 45 -27 225 -55 206
-33 227 -38 227 -55 0 -5 18 -52 41 -105 l41 -95 -99 -127 c-173 -222 -169
-211 -102 -300 53 -71 314 -329 352 -349 16 -9 37 -12 50 -8 12 3 90 57 172
118 83 62 156 115 162 120 11 6 187 -56 205 -73 3 -3 20 -98 37 -210 26 -170
35 -209 53 -228 21 -23 22 -23 295 -23 168 0 282 4 293 10 31 17 62 158 86
390 l7 65 103 41 103 40 151 -118 c83 -65 162 -123 176 -128 19 -8 35 -6 62 7
41 20 229 197 333 316 95 106 94 115 -14 249 -46 57 -102 128 -125 159 l-42
56 29 64 c15 35 34 81 40 102 7 20 18 37 24 37 7 1 104 16 216 34 178 29 206
36 223 55 16 21 18 46 18 295 -1 283 -2 291 -45 313 -11 6 -109 23 -217 39
l-197 28 -41 101 c-23 55 -43 105 -46 110 -2 6 48 78 112 160 63 83 120 161
125 174 15 37 -28 99 -175 249 -157 162 -218 212 -255 212 -20 0 -75 -36 -194
-125 l-166 -124 -63 28 c-35 16 -79 33 -99 40 l-35 11 -32 213 c-29 195 -34
214 -58 235 -25 22 -29 22 -292 22 -225 0 -271 -2 -290 -15z m433 -1010 c120
-25 226 -85 325 -184 89 -89 137 -165 176 -281 29 -84 27 -300 -3 -395 -31
-99 -87 -187 -168 -269 -77 -78 -149 -125 -253 -165 -62 -23 -79 -25 -222 -25
-143 0 -160 2 -222 25 -102 40 -174 87 -252 165 -128 127 -185 256 -194 435
-6 133 13 227 70 342 76 152 247 296 408 341 104 29 230 33 335 11z"/>
<path d="M3569 2086 l-164 -94 2 -37 c2 -21 26 -94 54 -164 28 -69 56 -137 61
-151 9 -21 4 -35 -28 -90 -21 -36 -39 -66 -40 -68 -1 -2 -53 -10 -116 -18
-143 -17 -253 -41 -267 -58 -8 -9 -11 -74 -9 -197 l3 -184 36 -17 c19 -10 108
-28 196 -40 l161 -22 21 -41 c11 -22 28 -52 37 -67 17 -26 17 -28 -29 -135
-57 -135 -91 -238 -84 -256 6 -15 293 -185 328 -194 23 -6 70 42 191 196 l73
93 79 0 79 0 64 -84 c95 -122 172 -208 189 -208 8 0 87 41 175 92 146 85 159
95 159 121 0 29 -50 171 -100 283 -30 65 -30 66 -11 92 10 15 28 46 39 68 l21
41 98 12 c117 14 251 40 276 52 15 9 17 29 17 203 l0 194 -27 11 c-37 15 -161
38 -253 47 -41 4 -83 10 -92 13 -10 3 -35 35 -57 71 -38 64 -39 66 -24 100 69
160 113 280 113 307 0 37 1 37 -202 152 -85 49 -131 70 -141 64 -20 -12 -103
-106 -179 -204 l-68 -87 -78 0 -78 0 -66 86 c-72 95 -175 212 -187 212 -4 0
-81 -42 -172 -94z m646 -571 c63 -31 139 -108 168 -173 33 -74 31 -189 -6
-267 -36 -77 -110 -147 -185 -175 -79 -30 -195 -25 -267 12 -60 31 -124 96
-156 158 -20 38 -24 60 -24 140 0 106 16 153 79 226 35 41 117 91 170 105 56
15 165 2 221 -26z"/>
</g>
</svg>
