<?xml version="1.0" encoding="UTF-8"?>
<!DOCTYPE svg PUBLIC "-//W3C//DTD SVG 1.1//EN" "http://www.w3.org/Graphics/SVG/1.1/DTD/svg11.dtd">
<!-- Creator: CorelDRAW 2018 (64 Bit) -->
<svg xmlns="http://www.w3.org/2000/svg" xml:space="preserve" width="9mm" height="6.5mm" version="1.1" style="shape-rendering:geometricPrecision; text-rendering:geometricPrecision; image-rendering:optimizeQuality; fill-rule:evenodd; clip-rule:evenodd"
viewBox="0 0 900 650"
 xmlns:xlink="http://www.w3.org/1999/xlink"
 enable-background="new 0 0 32 32">
 <defs>
  <style type="text/css">
   <![CDATA[
    .fil0 {fill:#4070F4}
   ]]>
  </style>
 </defs>
 <g id="Camada_x0020_1">
  <metadata id="CorelCorpID_0Corel-Layer"/>
  <g id="_2249458666368">
   <path class="fil0" d="M262.82 300.83c47.76,0 86.6,-38.87 86.6,-86.62 0,-47.78 -38.87,-86.68 -86.6,-86.68 -47.78,0 -86.65,38.89 -86.65,86.68 0,47.75 38.87,86.62 86.65,86.62zm0 -146.85c33.18,0 60.14,27.01 60.14,60.22 0,33.18 -26.99,60.17 -60.14,60.17 -33.21,0 -60.19,-26.99 -60.19,-60.17 0,-33.2 26.99,-60.22 60.19,-60.22zm344.43 83.95l106.54 0c7.3,0 13.23,-5.93 13.23,-13.23 0,-7.3 -5.93,-13.23 -13.23,-13.23l-106.54 0.01c-7.3,0 -13.23,5.93 -13.23,13.23 0,7.3 5.9,13.22 13.23,13.22z"/>
   <path class="fil0" d="M875.38 553.78l-16.81 0 0 -520.24c0,-7.3 -5.93,-13.23 -13.23,-13.23l-761.43 0c-7.3,0 -13.23,5.93 -13.23,13.23l0 520.24 -16.88 0c-7.3,0 -13.23,5.93 -13.23,13.23l0 58.39c0,7.3 5.93,13.23 13.23,13.23l110.7 0.01 197.96 0 512.94 0c7.3,0 13.23,-5.93 13.23,-13.23l0 -58.39c-0.03,-7.34 -5.93,-13.24 -13.25,-13.24zm-778.24 -507.01l734.98 0 0 507.01 -456.43 0 0 -117.09 76.97 25.89c4.45,1.51 9.47,0.53 13.03,-2.67l94.19 -84.31 29.71 -5.24c6.75,-1.16 11.46,-7.3 10.87,-14.13l-5.9 -69.74c-0.56,-6.85 -6.3,-12.12 -13.18,-12.12l-7.42 0 11.17 -46.57c1.69,-7.12 -2.7,-14.26 -9.79,-15.95 -7.2,-1.67 -14.26,2.67 -15.95,9.79l-10.64 44.29 -3.18 -2.17c-3.6,-2.41 -8.1,-2.91 -12.2,-1.38 -4.05,1.59 -7.06,5.03 -8.1,9.23l-8.1 33.63 -73.31 59.11 -81.02 -57.18c-2.22,-1.59 -4.89,-2.41 -7.62,-2.41l-166.71 0c-13.92,0 -22.36,6.09 -26.99,11.19 -12.12,13.41 -10.48,33.28 -10.35,34.18l0 203.69 -54.03 0.02 0 -507.07zm-30.11 533.47l84.24 0 0 31.94 -84.24 0 0 -31.94zm110.68 31.94l0 -45.11c0,-0.03 0,-0.03 0,-0.05 0,-0.02 0,-0.03 0,-0.05l-0.08 -218.19c-0.26,-2.67 0.08,-11.22 3.6,-15.08 0.61,-0.66 2.22,-2.46 8.12,-2.46 0.03,0 0.03,0 0.05,0l161.66 -0.01 85.73 60.51c4.79,3.39 11.35,3.2 15.93,-0.53l84.58 -68.18c2.28,-1.83 3.86,-4.37 4.58,-7.2l4.68 -19.45 3.2 2.17c0.21,0.13 0.48,0.08 0.64,0.21 1.16,0.69 2.33,1.38 3.7,1.69 1.03,0.24 2.06,0.37 3.07,0.37l12.06 0.01 3.86 45.59 -21.51 3.81c-2.43,0.42 -4.68,1.53 -6.54,3.18l-91.22 81.7 -87.13 -29.32c-4.02,-1.35 -8.49,-0.69 -11.93,1.77 -3.47,2.49 -5.5,6.48 -5.5,10.74l0 193.9 -171.55 0 0 -0.02zm684.44 0l-486.46 0 0 -31.94 486.48 0 0 31.94 -0.02 0z"/>
  </g>
 </g>
</svg>
