<?xml version="1.0" encoding="UTF-8"?>
<!DOCTYPE svg PUBLIC "-//W3C//DTD SVG 1.1//EN" "http://www.w3.org/Graphics/SVG/1.1/DTD/svg11.dtd">
<!-- Creator: CorelDRAW 2018 (64 Bit) -->
<svg xmlns="http://www.w3.org/2000/svg" xml:space="preserve" width="210mm" height="210mm" version="1.1" style="shape-rendering:geometricPrecision; text-rendering:geometricPrecision; image-rendering:optimizeQuality; fill-rule:evenodd; clip-rule:evenodd"
viewBox="0 0 21000 21000"
 xmlns:xlink="http://www.w3.org/1999/xlink">
 <defs>
  <style type="text/css">
   <![CDATA[
    .fil0 {fill:#4070F4}
   ]]>
  </style>
 </defs>
 <g id="Camada_x0020_1">
  <metadata id="CorelCorpID_0Corel-Layer"/>
  <g id="_2176437548016">
   <g id="XMLID_520_">
    <circle id="XMLID_904_" class="fil0" cx="6227.94" cy="2373.44" r="2006.41"/>
    <path id="XMLID_910_" class="fil0" d="M10907.28 13985.91c-56.55,-442.78 -377.18,-806.36 -809.35,-917.96l-2330.7 -601.72 52.03 -733.42c-397.58,-75.8 -732.52,-347.07 -890.35,-716.65l-1420.84 -3341.46 2165.54 2756.35c187.58,238.72 482.33,368.68 786.94,344.6l1873.29 -149.05c-12.89,44.43 -20.13,91.23 -20.13,139.83 0,277.03 224.59,501.63 501.62,501.63 466.77,0 3957.66,0 4525.15,0 226.88,0 425.52,-152.28 484.45,-371.37l1273.66 -4735.46c71.96,-267.55 -86.59,-542.76 -354.13,-614.7 -267.55,-71.87 -542.76,86.54 -614.7,354.13l-1173.79 4364.1c-481.62,0 -1878.88,0 -2349.14,0 208.62,-182.84 331.9,-457.69 308.23,-755.44 -39.83,-500.46 -477.15,-874.29 -978.29,-834.11l-3134.51 249.38 -1864.47 -2373.12 1186.45 885.21 38.13 -536.94c52.98,-746.66 -509.32,-1394.97 -1256.03,-1447.95l-2300.54 -163.28c-787.65,-55.89 -1457.3,571.84 -1451.32,1362.3l51.01 6709.76c2.11,278.2 104.4,543.68 284.02,750.34l-928.32 -0.01 -977.38 -7717.7c-50.43,-398.44 -414.19,-680.76 -812.81,-630.1 -398.44,50.48 -680.57,414.37 -630.1,812.81l1057.89 8353.57c46.05,363.4 355.16,635.87 721.47,635.87l2626.22 -0.01 0 2978.12 -1727.5 1410.19c-214.61,175.19 -246.6,491.19 -71.38,705.81 175.2,214.65 491.25,246.56 705.81,71.38l1093.02 -892.28 0 503.69c0,277.03 224.59,501.62 501.63,501.62 277.03,0 501.62,-224.59 501.62,-501.62l0 -503.69 1093.02 892.28c93.16,76.02 205.39,113.07 316.94,113.07 145.43,-0.05 289.75,-62.96 388.91,-184.45 175.19,-214.62 143.23,-530.62 -71.38,-705.81l-1727.5 -1410.19 0 -2978.12 2394.76 0c363.31,0 663.57,-266.74 717.67,-614.89l174.74 45.11 625.53 4895.62c76.38,598.06 623.21,1020.17 1220.27,943.78 597.61,-76.34 1020.12,-622.72 943.78,-1220.27l-719.14 -5628.78z"/>
    <path id="XMLID_911_" class="fil0" d="M19991.9 11919.36l-8260.4 0c-401.62,0 -727.25,325.59 -727.25,727.24 0,401.66 325.6,727.25 727.25,727.25l7533.16 0 0 6015.62 -3422.55 0c-401.62,0 -727.25,325.59 -727.25,727.24 0,401.66 325.59,727.25 727.25,727.25l4149.79 0c401.62,0 727.25,-325.59 727.25,-727.25l0 -7470.15c0,-401.61 -325.59,-727.2 -727.25,-727.2z"/>
   </g>
   <g>
   </g>
   <g>
   </g>
   <g>
   </g>
   <g>
   </g>
   <g>
   </g>
   <g>
   </g>
   <g>
   </g>
   <g>
   </g>
   <g>
   </g>
   <g>
   </g>
   <g>
   </g>
   <g>
   </g>
   <g>
   </g>
   <g>
   </g>
   <g>
   </g>
  </g>
 </g>
</svg>
